HIERARCHY
ROOT RootJoint
{
    OFFSET   0.000000   0.000000   0.000000
    CHANNELS 6 Xposition Yposition Zposition Xrotation Yrotation Zrotation
    JOINT pelvis_lowerback
    {
        OFFSET   0.000000   0.093605   0.000000
        CHANNELS 3 Xrotation Yrotation Zrotation
        JOINT lowerback_torso
        {
            OFFSET   0.000000   0.100000   0.000000
            CHANNELS 3 Xrotation Yrotation Zrotation
            JOINT torso_head
            {
                OFFSET   0.000000   0.282350   0.000000
                CHANNELS 3 Xrotation Yrotation Zrotation
                End Site
                {
                    OFFSET   0.000000   0.192650   0.000000
                }
            }
            JOINT rTorso_Clavicle
            {
                OFFSET  -0.001000   0.157500   0.000000
                CHANNELS 3 Xrotation Yrotation Zrotation
                JOINT rShoulder
                {
                    OFFSET  -0.117647   0.000000   0.000000
                    CHANNELS 3 Xrotation Yrotation Zrotation
                    JOINT rElbow
                    {
                        OFFSET  -0.245000   0.000000   0.000000
                        CHANNELS 3 Xrotation Yrotation Zrotation
                        JOINT rWrist
                        {
                            OFFSET  -0.240000   0.000000   0.000000
                            CHANNELS 3 Xrotation Yrotation Zrotation
                            End Site
                            {
                                OFFSET  -0.116353  -0.002500   0.000000
                            }
                        }
                    }
                }
            }
            JOINT lTorso_Clavicle
            {
                OFFSET   0.001000   0.157500   0.000000
                CHANNELS 3 Xrotation Yrotation Zrotation
                JOINT lShoulder
                {
                    OFFSET   0.117647   0.000000   0.000000
                    CHANNELS 3 Xrotation Yrotation Zrotation
                    JOINT lElbow
                    {
                        OFFSET   0.245000   0.000000   0.000000
                        CHANNELS 3 Xrotation Yrotation Zrotation
                        JOINT lWrist
                        {
                            OFFSET   0.240000   0.000000   0.000000
                            CHANNELS 3 Xrotation Yrotation Zrotation
                            End Site
                            {
                                OFFSET   0.116353  -0.002500   0.000000
                            }
                        }
                    }
                }
            }
        }
    }
    JOINT rHip
    {
        OFFSET  -0.100000  -0.051395   0.000000
        CHANNELS 3 Xrotation Yrotation Zrotation
        JOINT rKnee
        {
            OFFSET   0.000000  -0.410000   0.000000
            CHANNELS 3 Xrotation Yrotation Zrotation
            JOINT rAnkle
            {
                OFFSET   0.000000  -0.390000   0.000000
                CHANNELS 3 Xrotation Yrotation Zrotation
                JOINT rToeJoint
                {
                    OFFSET   0.000000  -0.050000   0.130000
                    CHANNELS 3 Xrotation Yrotation Zrotation
                    End Site
                    {
                        OFFSET  -0.010000   0.002000   0.060000
                    }
                }
            }
        }
    }
    JOINT lHip
    {
        OFFSET   0.100000  -0.051395   0.000000
        CHANNELS 3 Xrotation Yrotation Zrotation
        JOINT lKnee
        {
            OFFSET   0.000000  -0.410000   0.000000
            CHANNELS 3 Xrotation Yrotation Zrotation
            JOINT lAnkle
            {
                OFFSET   0.000000  -0.390000   0.000000
                CHANNELS 3 Xrotation Yrotation Zrotation
                JOINT lToeJoint
                {
                    OFFSET   0.000000  -0.050000   0.130000
                    CHANNELS 3 Xrotation Yrotation Zrotation
                    End Site
                    {
                        OFFSET   0.010000   0.002000   0.060000
                    }
                }
            }
        }
    }
}
MOTION
Frames: 12
Frame Time:   0.008333
 -2.376719   0.925631   3.975860   0.000000   0.000000   0.000000   0.000000   0.000000   0.000000   0.000000   0.000000   0.000000   0.000000   0.000000   0.000000   0.000000   0.000000   0.000000   0.000000   0.000000   0.000000   0.000000   0.000000   0.000000   0.000000   0.000000   0.000000   0.000000   0.000000   0.000000   0.000000   0.000000   0.000000   0.000000   0.000000   0.000000   0.000000   0.000000   0.000000   0.000000   0.000000   0.000000   0.000000   0.000000   0.000000   0.000000   0.000000   0.000000   0.000000   0.000000   0.000000   0.000000   0.000000   0.000000   0.000000   0.000000   0.000000   0.000000   0.000000   0.000000   0.000000   0.000000   0.000000
 -2.376346   0.925362   3.973337  -0.433078   0.141152   0.464349   0.970876   0.139515  -0.490865  -0.221543  -0.234074  -0.257589  -0.215939   0.320613  -0.143441  -0.237078  -0.329682   0.730980  -0.742818   0.871755   1.338176   0.050888   3.313672   0.017737   0.019193  -2.608225  -2.449367  -0.437711   0.141978   0.255097  -0.036539  -0.550295  -0.306050   0.009223  -3.190084  -0.004138   0.024198   2.214847   0.504927  -0.525260  -0.399093  -0.962608   2.817437   0.012000  -0.006845  -1.803999  -0.657299   0.888620   0.181647  -0.000620  -0.001451  -1.135755   0.304307  -0.326607   3.646753  -0.003833   0.014070  -2.284261   0.259761  -0.051538   0.122677  -0.000097   0.000744
 -2.375646   0.924773   3.970234  -1.107298   0.241373   0.895936   2.016228   0.318487  -0.942200  -0.268845  -0.435250  -0.437075  -0.389912   0.633428  -0.373189  -0.470585  -0.222719   1.999179  -1.492137   2.061015   3.046687   0.123352   6.846941   0.031489  -0.006905  -3.968258  -4.369929  -0.847189  -0.137045   0.379261  -0.078510  -1.440107  -0.684473   0.019569  -6.381988  -0.006527   0.039566   3.187161   0.876212  -0.820848  -0.797159  -2.271320   5.823362   0.031322  -0.016193  -3.458284  -1.311212   1.696116   0.362627  -0.000404  -0.002723  -2.303572   0.627108  -0.447287   7.635106  -0.011025   0.026553  -4.404162   0.515286  -0.085892   0.196602  -0.000242   0.001024
 -2.374576   0.923623   3.966829  -1.851786   0.280352   1.235467   3.040654   0.525779  -1.268585  -0.260837  -0.588804  -0.475511  -0.562004   0.927756  -0.621778  -0.705326   0.193948   3.558075  -2.248358   3.399833   4.938109   0.202275  10.480808   0.042579  -0.020417  -4.591139  -5.644249  -1.224284  -0.690111   0.380779  -0.125358  -2.501348  -1.122470   0.027251  -9.457088  -0.008360   0.055380   3.471638   1.067215  -0.979429  -1.178217  -3.805694   8.712650   0.052618  -0.027698  -4.985840  -1.949632   2.430114   0.550337   0.000390  -0.003943  -3.524997   0.932263  -0.343131  11.624698  -0.019417   0.035592  -6.379773   0.758660  -0.105450   0.273513  -0.000445   0.001217
 -2.373213   0.921800   3.963216  -2.629051   0.301458   1.498525   4.054211   0.740965  -1.471752  -0.221845  -0.709753  -0.376859  -0.739517   1.203507  -0.864815  -0.949462   0.801875   5.279398  -3.012497   4.791787   6.920797   0.279563  14.175745   0.050997  -0.013901  -4.784235  -6.415039  -1.570881  -1.408428   0.299398  -0.177445  -3.646571  -1.591611   0.030923 -12.387522  -0.008865   0.071013   3.359359   1.120729  -1.085252  -1.485891  -5.437471  11.320395   0.069816  -0.037396  -6.489405  -2.498122   3.139192  -0.344445  -0.004521   0.004517  -4.802002   1.207725  -0.060337  15.574557  -0.027776   0.043486  -8.224512   0.988169  -0.113772   0.343039  -0.000637   0.001316
 -2.371532   0.919183   3.959606  -3.424275   0.285673   1.711513   5.044017   0.977788  -1.555971  -0.155394  -0.790290  -0.162544  -0.915325   1.461997  -1.095469  -1.207214   1.527184   7.074746  -3.782746   6.184962   8.934065   0.347041  17.809494   0.057351   0.013946  -4.685716  -6.813534  -1.889146  -2.211665   0.170253  -0.234202  -4.817091  -2.068717   0.030296 -15.161744  -0.008114   0.086327   3.009362   1.083481  -1.159164  -1.791464  -7.193443  13.784494   0.084409  -0.048128  -7.863670  -3.054921   3.770146  -0.815366  -0.007252   0.008010  -6.081023   1.452363   0.342988  19.395380  -0.034983   0.049678  -9.946966   1.204145  -0.112537   0.404655  -0.000791   0.001337
 -2.369577   0.915690   3.956148  -4.209816   0.248393   1.884328   5.988922   1.234168  -1.530181  -0.075308  -0.832527   0.154220  -1.086141   1.703968  -1.309332  -1.479565   2.316568   8.891521  -4.555758   7.545182  10.941265   0.397909  21.233587   0.062102   0.059318  -4.382922  -6.940969  -2.182575  -3.048139   0.022911  -0.295243  -5.976366  -2.533902   0.025891 -17.776908  -0.006409   0.101062   2.517649   1.000818  -1.202931  -2.088816  -9.062548  16.120961   0.096349  -0.058893  -9.117374  -3.609580   4.333084  -0.988285  -0.007471   0.008119  -7.330950   1.662781   0.836727  22.962327  -0.040314   0.054367 -11.554554   1.406346  -0.103789   0.459260  -0.000900   0.001310
 -2.367925   0.911078   3.952561  -4.689966   0.158112   1.950907   6.558229   1.429567  -1.484186   0.015861  -0.707925   0.617228  -1.200526   1.884679  -1.503096  -1.683440   3.053754  10.460039  -5.378553   9.138003  12.919603   0.425110  24.470710   0.063840   0.066235  -4.363065  -6.400155  -2.332811  -3.814727   0.067250  -0.437867  -7.297537  -3.141918   0.020468 -20.495512  -0.003163   0.058708   2.288424   0.978642  -1.673709  -2.469879 -10.862573  18.589315   0.105640  -0.074509 -10.419812  -4.277394   5.006749  -0.774649  -0.004122   0.003752  -8.897954   1.787389   1.575975  26.350219  -0.047732   0.057054 -13.061727   1.411289  -0.399048   0.792675  -0.001858   0.001749
 -2.366433   0.905441   3.949150  -5.142517   0.050079   1.994863   7.097856   1.634017  -1.417133   0.088428  -0.552844   1.098346  -1.312122   2.052514  -1.673663  -1.912957   3.852847  11.912965  -6.211515  10.687087  14.797258   0.434572  27.525108   0.064426   0.083070  -4.242780  -5.771783  -2.477486  -4.614119   0.153906  -0.588482  -8.601171  -3.685314   0.013729 -23.066818   0.000076   0.021306   1.907624   0.992354  -2.124468  -2.814886 -12.664551  20.912862   0.110258  -0.087073 -11.629427  -4.917669   5.620310  -0.580810  -0.001527   0.000478 -10.416035   1.855402   2.420448  29.483112  -0.054198   0.059408 -14.468637   1.422117  -0.674109   1.104227  -0.002806   0.002072
 -2.365065   0.898821   3.945996  -5.569515  -0.050340   2.034424   7.606054   1.843451  -1.335533   0.147210  -0.386030   1.576459  -1.419995   2.209352  -1.828081  -2.162219   4.670379  13.266960  -7.047780  12.163476  16.581925   0.430919  30.397335   0.064220   0.112489  -4.023125  -5.159143  -2.619689  -5.419056   0.268371  -0.745993  -9.861571  -4.170957   0.006910 -25.484700   0.003075  -0.010364   1.437886   1.058836  -2.534693  -3.118227 -14.465398  23.084016   0.111232  -0.095849 -12.754448  -5.527908   6.178829  -0.405349   0.000435  -0.001861 -11.878902   1.876396   3.322856  32.386464  -0.058865   0.061925 -15.782567   1.439723  -0.929683   1.388015  -0.003607   0.002360
 -2.363811   0.891256   3.943139  -5.969253  -0.132580   2.074640   8.079938   2.054126  -1.243982   0.192112  -0.213984   2.044113  -1.522383   2.355991  -1.968543  -2.424106   5.477659  14.529769  -7.880446  13.553544  18.278386   0.417756  33.092860   0.063438   0.149012  -3.737360  -4.580567  -2.759071  -6.207273   0.400388  -0.907910 -11.065022  -4.608745   0.000754 -27.753053   0.005718  -0.037012   0.923167   1.169687  -2.902007  -3.383475 -16.248765  25.113001   0.109489  -0.101119 -13.801504  -6.107806   6.687433  -0.246651   0.001868  -0.003455 -13.284831   1.855769   4.256259  35.079601  -0.061525   0.064403 -17.009572   1.462430  -1.167218   1.646171  -0.004220   0.002623
 -2.362666   0.882789   3.940595  -6.341460  -0.193164   2.117606   8.518218   2.264049  -1.146779   0.223316  -0.039883   2.496218  -1.618492   2.493113  -2.096182  -2.692553   6.257211  15.706668  -8.703547  14.851468  19.889555   0.397915  35.618966   0.062193   0.188364  -3.412540  -4.041097  -2.894829  -6.964016   0.541987  -1.071817 -12.203545  -5.006843  -0.004359 -29.877515   0.007928  -0.059283   0.391780   1.313191  -3.227084  -3.615596 -17.997819  27.010587   0.105760  -0.103393 -14.776483  -6.657524   7.150876  -0.103188   0.002868  -0.004474 -14.631455   1.798477   5.200651  37.579149  -0.062290   0.066510 -18.155330   1.488835  -1.387966   1.881089  -0.004640   0.002851
